<svg width="232" height="70" viewBox="0 0 232 70" fill="none" xmlns="http://www.w3.org/2000/svg">
<rect width="232" height="70" rx="35" fill="url(#paint0_radial_359_163)"/>
<path d="M75.0626 44.812C78.2786 44.812 80.1986 42.676 80.1986 39.172V33.028C80.1986 29.524 78.2786 27.388 75.0626 27.388C71.8466 27.388 69.9266 29.524 69.9266 33.028V39.172C69.9266 42.676 71.8466 44.812 75.0626 44.812ZM75.0626 42.436C73.3106 42.436 72.4226 41.284 72.4226 39.172V33.028C72.4226 30.916 73.3106 29.764 75.0626 29.764C76.7906 29.764 77.7026 30.916 77.7026 33.028V39.172C77.7026 41.284 76.7906 42.436 75.0626 42.436ZM89.7343 31.852H81.6463V34.036H84.5263V44.5H86.8303V34.036H89.7343V31.852ZM99.5369 31.852H91.3529V44.5H93.6809V33.988H97.2089V44.5H99.5369V31.852ZM107.026 31.564C105.898 31.564 104.794 32.188 104.17 33.004L104.002 31.828H102.322V48.82H104.602V43.78C105.226 44.428 106.114 44.788 107.026 44.788C109.474 44.788 111.058 43.012 111.058 39.94V36.46C111.058 33.364 109.426 31.564 107.026 31.564ZM108.682 39.94C108.682 41.788 107.986 42.604 106.642 42.604C105.37 42.604 104.602 41.596 104.602 39.94V36.436C104.602 34.636 105.442 33.748 106.642 33.748C107.938 33.748 108.682 34.588 108.682 36.46V39.94ZM117.533 31.54C114.989 31.54 113.357 33.028 113.237 35.452H115.565C115.685 34.324 116.453 33.772 117.485 33.772C118.757 33.772 119.309 34.612 119.309 36.1V36.988H117.461C114.677 36.988 112.877 38.308 112.877 40.9C112.877 43.276 114.437 44.812 116.765 44.812C118.157 44.812 119.069 44.164 119.573 43.324L119.741 44.5H121.637V36.1C121.637 33.196 120.245 31.54 117.533 31.54ZM119.309 40.732C119.309 41.932 118.517 42.748 117.245 42.748C115.973 42.748 115.229 42.052 115.229 40.9C115.229 39.652 116.045 39.004 117.461 39.004H119.309V40.732ZM130.783 37.78C131.671 37.204 132.175 36.268 132.175 35.356C132.175 33.172 130.783 31.852 128.215 31.852H124.423V44.5H128.407C131.359 44.5 132.823 43.108 132.823 40.828C132.823 39.58 132.199 38.332 130.783 37.78ZM126.679 33.796H128.071C129.271 33.796 129.895 34.42 129.895 35.404C129.895 36.46 129.271 37.036 128.095 37.036H126.679V33.796ZM128.503 42.532H126.679V39.004H128.503C129.871 39.004 130.519 39.604 130.519 40.756C130.519 41.908 129.871 42.532 128.503 42.532ZM134.736 44.5H137.112L139.536 39.436C140.04 38.356 140.832 36.076 140.952 35.548L141.024 35.572C140.952 36.844 140.904 38.428 140.904 39.652V44.5H143.16V31.852H140.784L138.336 37.156C137.928 38.188 137.208 40.084 137.016 40.732L136.944 40.684C136.992 39.316 136.992 38.188 136.992 37.18V31.852H134.736V44.5ZM152.875 31.852H144.787V34.036H147.667V44.5H149.971V34.036H152.875V31.852ZM158.814 36.124H156.822V31.852H154.494V44.5H158.814C161.214 44.5 162.99 42.796 162.99 40.276C162.99 37.804 161.214 36.124 158.814 36.124ZM158.574 42.388H156.822V38.236H158.574C159.798 38.236 160.638 39.004 160.638 40.276C160.638 41.572 159.798 42.388 158.574 42.388Z" fill="white"/>
<defs>
<radialGradient id="paint0_radial_359_163" cx="0" cy="0" r="1" gradientUnits="userSpaceOnUse" gradientTransform="translate(19.6667 11) rotate(11.0355) scale(211.579 1545.66)">
<stop stop-color="#662CD3"/>
<stop offset="1" stop-color="#C41B69"/>
</radialGradient>
</defs>
</svg>
