<svg width="20" height="20" viewBox="0 0 20 20" fill="none" xmlns="http://www.w3.org/2000/svg">
<path d="M13.1001 10.1732L13.3997 10L13.1001 9.82684L8.10009 6.93684L7.8 6.76339V7.11V12.89V13.2366L8.10009 13.0632L13.1001 10.1732ZM8.9 5.55321L13.8997 8.443C13.8997 8.44304 13.8998 8.44307 13.8998 8.44311C14.1725 8.60133 14.3989 8.8284 14.5562 9.1016C14.7136 9.37485 14.7965 9.68466 14.7965 10C14.7965 10.3153 14.7136 10.6251 14.5562 10.8984C14.3989 11.1716 14.1725 11.3987 13.8998 11.5569C13.8998 11.5569 13.8997 11.557 13.8997 11.557L8.9 14.4468C8.62637 14.6048 8.31597 14.6879 8 14.6879C7.68404 14.6879 7.37364 14.6048 7.1 14.4468C6.82664 14.289 6.59959 14.062 6.44162 13.7887C6.28365 13.5155 6.20033 13.2054 6.2 12.8898V7.1102C6.20033 6.7944 6.28373 6.48423 6.44185 6.21085C6.59997 5.93747 6.82722 5.71051 7.1008 5.55274C7.37438 5.39498 7.68466 5.31197 8.00047 5.31205C8.31627 5.31213 8.6265 5.3953 8.9 5.55321ZM4.55542 1.8516C6.16702 0.77476 8.06175 0.2 10 0.2C11.287 0.2 12.5613 0.453485 13.7503 0.945981C14.9393 1.43848 16.0196 2.16034 16.9296 3.07035C17.8397 3.98037 18.5615 5.06071 19.054 6.2497C19.5465 7.43869 19.8 8.71305 19.8 10C19.8 11.9383 19.2252 13.833 18.1484 15.4446C17.0716 17.0562 15.541 18.3123 13.7503 19.054C11.9596 19.7958 9.98913 19.9898 8.08812 19.6117C6.18711 19.2336 4.44091 18.3002 3.07036 16.9296C1.6998 15.5591 0.766444 13.8129 0.388309 11.9119C0.0101736 10.0109 0.204246 8.04042 0.945985 6.2497C1.68772 4.45899 2.94381 2.92844 4.55542 1.8516ZM5.44433 16.8181C6.79281 17.7191 8.3782 18.2 10 18.2C12.1748 18.2 14.2605 17.3361 15.7983 15.7983C17.3361 14.2605 18.2 12.1748 18.2 10C18.2 8.37819 17.7191 6.79281 16.8181 5.44432C15.917 4.09584 14.6364 3.04483 13.138 2.42419C11.6397 1.80355 9.99091 1.64116 8.40026 1.95756C6.80962 2.27396 5.34852 3.05493 4.20173 4.20172C3.05494 5.34852 2.27396 6.80962 1.95757 8.40026C1.64117 9.9909 1.80355 11.6396 2.42419 13.138C3.04483 14.6364 4.09585 15.917 5.44433 16.8181Z" fill="#3C476D" stroke="#F2F2F2" stroke-width="0.4"/>
</svg>
